<?xml version="1.0" encoding="UTF-8"?> <svg xmlns="http://www.w3.org/2000/svg" width="39" height="39.45" viewBox="0 0 39 39.45"><g id="Group_319" data-name="Group 319" transform="translate(-445.199 -609.475)"><path id="Path_281" data-name="Path 281" d="M492.866,618.39v2.052h-5.316v-8.314a.637.637,0,0,0-.637-.637h-5.93a2.583,2.583,0,1,0-.036,1.274h5.328v13.692h1.274v-4.883h5.316v2.052h1.5v3.963h.247v-3.963h1.805v3.963h.247v-3.963h1.807v3.963h.247v-3.963h1.805v3.963h.247v-3.963h1.079V618.39Z" transform="translate(-17.656)" fill="#fff"></path><g id="Group_317" data-name="Group 317" transform="translate(445.199 619.325)"><path id="Path_282" data-name="Path 282" d="M480.98,653.925a1.7,1.7,0,0,1-.525-.085l-10.864-3.524h-9.929L445.635,635.51a1.7,1.7,0,0,1,2.465-2.335l13.02,13.747h9.005l11.375,3.69a1.7,1.7,0,0,1-.523,3.312Z" transform="translate(-445.199 -632.675)" fill="#fff"></path></g><g id="Group_318" data-name="Group 318" transform="translate(455.24 620.873)"><path id="Path_283" data-name="Path 283" d="M493.911,650.613a1.7,1.7,0,0,1-.694-.149l-8.382-3.758H475.7l-6.443-7.587a1.7,1.7,0,0,1,2.59-2.2l5.427,6.389h8.293l9.047,4.055a1.7,1.7,0,0,1-.7,3.249Z" transform="translate(-468.849 -636.321)" fill="#fff"></path></g><path id="Path_284" data-name="Path 284" d="M465.217,626.512a2.7,2.7,0,1,1-2.7-2.7,2.7,2.7,0,0,1,2.7,2.7Z" transform="translate(-8.406 -8.247)" fill="#fff"></path><path id="Path_285" data-name="Path 285" d="M476.147,686.426V676.307h-9.553v10.119h-9.5v.955h28.552v-.955Z" transform="translate(-6.845 -38.457)" fill="#fff"></path><path id="Path_286" data-name="Path 286" d="M481.328,613.112a1.8,1.8,0,1,1-1.8-1.805,1.8,1.8,0,0,1,1.8,1.805Z" transform="translate(-18.712 -1.054)" fill="#fff"></path><rect id="Rectangle_134" data-name="Rectangle 134" width="0.707" height="2.406" transform="translate(476.485 620.16)" fill="#fff"></rect><rect id="Rectangle_135" data-name="Rectangle 135" width="0.707" height="2.406" transform="translate(478.537 620.16)" fill="#fff"></rect><rect id="Rectangle_136" data-name="Rectangle 136" width="0.707" height="2.406" transform="translate(480.589 620.16)" fill="#fff"></rect><rect id="Rectangle_137" data-name="Rectangle 137" width="0.707" height="2.406" transform="translate(482.642 620.16)" fill="#fff"></rect></g></svg> 