<?xml version="1.0" encoding="iso-8859-1"?>
<!-- Generator: Adobe Illustrator 17.1.0, SVG Export Plug-In . SVG Version: 6.00 Build 0)  -->
<!DOCTYPE svg PUBLIC "-//W3C//DTD SVG 1.1//EN" "http://www.w3.org/Graphics/SVG/1.1/DTD/svg11.dtd">
<svg version="1.1" id="Capa_1" xmlns="http://www.w3.org/2000/svg" xmlns:xlink="http://www.w3.org/1999/xlink" x="0px" y="0px"
	 viewBox="0 0 228 228" style="enable-background:new 0 0 228 228;" xml:space="preserve">
<path d="M103.353,145.618c0,5.522-4.477,10-10,10c-0.005,0-0.013,0-0.02,0H42.667c-5.522,0-10-4.478-10-10
	c0-11.645,9.473-21.117,21.116-21.117h2.093c-5.115-3.748-8.457-9.781-8.457-16.594c0-11.348,9.232-20.58,20.58-20.58
	s20.58,9.232,20.58,20.58c0,6.813-3.341,12.846-8.457,16.594h2.092c11.35,0,20.637,9.001,21.1,20.239
	C103.34,145.029,103.353,145.322,103.353,145.618z M228,44.732v138.535c0,4.143-3.357,7.5-7.5,7.5H7.5c-4.143,0-7.5-3.357-7.5-7.5
	V44.732c0-4.143,3.357-7.5,7.5-7.5h213C224.643,37.232,228,40.59,228,44.732z M114.64,70.369c0-4.143-3.357-7.5-7.5-7.5H28.86
	c-4.143,0-7.5,3.357-7.5,7.5v87.262c0,4.143,3.357,7.5,7.5,7.5h78.279c4.143,0,7.5-3.357,7.5-7.5V70.369z M204.741,146
	c0-4.143-3.357-7.5-7.5-7.5h-53.574c-4.143,0-7.5,3.357-7.5,7.5s3.357,7.5,7.5,7.5h53.574
	C201.384,153.5,204.741,150.143,204.741,146z M204.741,114c0-4.143-3.357-7.5-7.5-7.5h-53.574c-4.143,0-7.5,3.357-7.5,7.5
	s3.357,7.5,7.5,7.5h53.574C201.384,121.5,204.741,118.143,204.741,114z M204.741,82c0-4.143-3.357-7.5-7.5-7.5h-53.574
	c-4.143,0-7.5,3.357-7.5,7.5s3.357,7.5,7.5,7.5h53.574C201.384,89.5,204.741,86.143,204.741,82z"/>
<g>
</g>
<g>
</g>
<g>
</g>
<g>
</g>
<g>
</g>
<g>
</g>
<g>
</g>
<g>
</g>
<g>
</g>
<g>
</g>
<g>
</g>
<g>
</g>
<g>
</g>
<g>
</g>
<g>
</g>
</svg>
