<?xml version="1.0" encoding="UTF-8"?> <svg xmlns="http://www.w3.org/2000/svg" width="20.772" height="20.767" viewBox="0 0 20.772 20.767"><path id="Icon_awesome-instagram" data-name="Icon awesome-instagram" d="M10.383,7.3a5.324,5.324,0,1,0,5.324,5.324A5.316,5.316,0,0,0,10.383,7.3Zm0,8.786a3.462,3.462,0,1,1,3.462-3.462,3.468,3.468,0,0,1-3.462,3.462Zm6.784-9a1.242,1.242,0,1,1-1.242-1.242A1.239,1.239,0,0,1,17.167,7.079Zm3.526,1.26a6.146,6.146,0,0,0-1.678-4.351,6.186,6.186,0,0,0-4.351-1.678c-1.715-.1-6.854-.1-8.568,0A6.177,6.177,0,0,0,1.745,3.984,6.166,6.166,0,0,0,.068,8.335c-.1,1.715-.1,6.854,0,8.568a6.146,6.146,0,0,0,1.678,4.351A6.194,6.194,0,0,0,6.1,22.932c1.715.1,6.854.1,8.568,0a6.146,6.146,0,0,0,4.351-1.678A6.186,6.186,0,0,0,20.694,16.9c.1-1.715.1-6.849,0-8.564Zm-2.215,10.4A3.5,3.5,0,0,1,16.5,20.717c-1.367.542-4.611.417-6.122.417s-4.759.12-6.122-.417a3.5,3.5,0,0,1-1.974-1.974c-.542-1.367-.417-4.611-.417-6.122S1.75,7.862,2.287,6.5A3.5,3.5,0,0,1,4.261,4.526c1.367-.542,4.611-.417,6.122-.417s4.759-.12,6.122.417A3.5,3.5,0,0,1,18.479,6.5c.542,1.367.417,4.611.417,6.122S19.021,17.38,18.479,18.743Z" transform="translate(0.005 -2.238)" fill="#5d5d5d"></path></svg> 