<?xml version="1.0" encoding="UTF-8"?> <svg xmlns="http://www.w3.org/2000/svg" width="17.499" height="24.794" viewBox="0 0 17.499 24.794"><path id="Path_282" data-name="Path 282" d="M650.259,607.173a5.587,5.587,0,0,0-3.017-.967,6.783,6.783,0,0,0-2.709.689,2.367,2.367,0,0,1-2.657,0,6.787,6.787,0,0,0-2.709-.689,5.586,5.586,0,0,0-3.017.967c-2.848,1.8-1.465,6.026-.455,9.114l.174.533h-.079v5.139h6.147v1.106H637.61v1.3h4.326v.911h-3.272v1.3h3.272v.911h-1.974v1.3h1.974v.911h-.6V631h3.729v-1.3h-.6v-.911h1.975v-1.3h-1.975v-.911h3.272v-1.3h-3.272v-.911H648.8v-1.3h-4.326v-1.106h6.147V616.82h-.079c.056-.174.114-.351.174-.534C651.724,613.2,653.107,608.97,650.259,607.173Zm-.287,8.871c-.088.268-.172.527-.252.776H636.687c-.079-.249-.164-.508-.252-.776-.93-2.844-2.2-6.738.13-8.211a4.837,4.837,0,0,1,2.6-.847,6.055,6.055,0,0,1,2.4.627,3.073,3.073,0,0,0,3.266,0,6.057,6.057,0,0,1,2.4-.627,4.837,4.837,0,0,1,2.6.847C652.176,609.306,650.9,613.2,649.972,616.044Z" transform="translate(-634.454 -606.206)" fill="#82817f"></path></svg> 