<?xml version="1.0" encoding="UTF-8"?> <svg xmlns="http://www.w3.org/2000/svg" width="20.76" height="20.76" viewBox="0 0 20.76 20.76"><path id="Icon_awesome-linkedin-in" data-name="Icon awesome-linkedin-in" d="M4.647,20.761H.343V6.9h4.3ZM2.493,5.01A2.5,2.5,0,1,1,4.985,2.493,2.514,2.514,0,0,1,2.493,5.01ZM20.756,20.761H16.461V14.013c0-1.608-.032-3.67-2.238-3.67-2.238,0-2.581,1.747-2.581,3.554v6.863h-4.3V6.9h4.128V8.791h.06A4.523,4.523,0,0,1,15.6,6.553c4.356,0,5.157,2.868,5.157,6.594v7.614Z" transform="translate(0 -0.001)" fill="#5d5d5d"></path></svg> 