<?xml version="1.0" encoding="UTF-8"?> <svg xmlns="http://www.w3.org/2000/svg" width="28.5" height="28.5" viewBox="0 0 28.5 28.5"><g id="phone-call" transform="translate(0.001)"><g id="Group_10" data-name="Group 10" transform="translate(-0.001)"><g id="Group_9" data-name="Group 9" transform="translate(0)"><path id="Path_3" data-name="Path 3" d="M24.1,4.05a14.427,14.427,0,0,0-20.046,0,14.427,14.427,0,0,0,20.4,20.4A14.427,14.427,0,0,0,24.1,4.05Zm-.323,19.722,0,0a13.466,13.466,0,1,1,3.948-9.517A13.465,13.465,0,0,1,23.767,23.767Z" transform="translate(0.001)" fill="#5b5b5b"></path></g></g><g id="Group_12" data-name="Group 12" transform="translate(5.675 5.763)"><g id="Group_11" data-name="Group 11"><path id="Path_4" data-name="Path 4" d="M117.39,114.848l-2.7-2.693a1.573,1.573,0,0,0-2.224,0l0,0-1.549,1.549a.341.341,0,0,1-.438.038,17.848,17.848,0,0,1-4.169-4.093.337.337,0,0,1,.034-.438l1.587-1.587a1.573,1.573,0,0,0,0-2.222l-2.7-2.7a1.611,1.611,0,0,0-2.227,0l-.856.856a4.809,4.809,0,0,0-1.193,4.905,14.426,14.426,0,0,0,1.76,3.568,18.706,18.706,0,0,0,5.4,5.3,13.768,13.768,0,0,0,4,1.779,4.633,4.633,0,0,0,1.116.135,4.867,4.867,0,0,0,3.429-1.443l.736-.736A1.573,1.573,0,0,0,117.39,114.848Zm-.681,1.566,0,0,0-.014-.736.736a3.847,3.847,0,0,1-3.631,1.039,12.784,12.784,0,0,1-3.713-1.664,17.78,17.78,0,0,1-5.117-5.016,13.464,13.464,0,0,1-1.645-3.328,3.847,3.847,0,0,1,.962-3.929l.856-.856a.611.611,0,0,1,.864,0l0,0,2.7,2.7a.611.611,0,0,1,0,.864l0,0-1.587,1.587a1.294,1.294,0,0,0-.135,1.683,18.945,18.945,0,0,0,4.4,4.319,1.3,1.3,0,0,0,1.664-.144l1.534-1.558a.611.611,0,0,1,.864,0l0,0,2.708,2.712A.611.611,0,0,1,116.709,116.414Z" transform="translate(-100.712 -102.253)" fill="#5b5b5b"></path></g></g></g></svg> 