<?xml version="1.0" encoding="UTF-8"?> <svg xmlns="http://www.w3.org/2000/svg" width="28.549" height="28.549" viewBox="0 0 28.549 28.549"><path id="user_1_" data-name="user (1)" d="M24.368,4.181A14.275,14.275,0,0,0,4.18,24.368,14.275,14.275,0,0,0,24.368,4.181ZM7.156,24.668a7.228,7.228,0,0,1,14.237,0,12.574,12.574,0,0,1-14.237,0Zm2.58-12.185a4.539,4.539,0,1,1,4.539,4.539,4.544,4.544,0,0,1-4.539-4.539ZM22.841,23.507a8.915,8.915,0,0,0-5.183-5.818,6.212,6.212,0,1,0-6.769,0,8.914,8.914,0,0,0-5.183,5.818,12.6,12.6,0,1,1,17.135,0Zm0,0" transform="translate(0.001 0)" fill="#5b5b5b"></path></svg> 